<mxfile host="app.diagrams.net" modified="2022-10-11T10:04:50.713Z" agent="5.0 (Windows NT 10.0; Win64; x64) AppleWebKit/537.36 (KHTML, like Gecko) Chrome/106.0.0.0 Safari/537.36" etag="MkQo3UdXWZ1XoeNooDTX" version="20.4.0" type="github">
  <diagram id="b4kIOtqKe5-Rke0ufVLy" name="第 1 页">
    <mxGraphModel dx="1835" dy="1053" grid="1" gridSize="10" guides="1" tooltips="1" connect="1" arrows="1" fold="1" page="1" pageScale="1" pageWidth="413" pageHeight="291" math="0" shadow="0">
      <root>
        <mxCell id="0" />
        <mxCell id="1" parent="0" />
        <mxCell id="CHVG-9VIsM-Ay3hfymmI-17" value="" style="rounded=1;whiteSpace=wrap;html=1;fillColor=#d5e8d4;strokeColor=#82b366;" vertex="1" parent="1">
          <mxGeometry x="-206" y="-140" width="646" height="600" as="geometry" />
        </mxCell>
        <mxCell id="CHVG-9VIsM-Ay3hfymmI-9" style="edgeStyle=orthogonalEdgeStyle;rounded=0;orthogonalLoop=1;jettySize=auto;html=1;entryX=0;entryY=0.5;entryDx=0;entryDy=0;fillColor=#dae8fc;strokeColor=#6c8ebf;" edge="1" parent="1" source="CHVG-9VIsM-Ay3hfymmI-1" target="CHVG-9VIsM-Ay3hfymmI-3">
          <mxGeometry relative="1" as="geometry" />
        </mxCell>
        <mxCell id="CHVG-9VIsM-Ay3hfymmI-10" style="edgeStyle=orthogonalEdgeStyle;rounded=0;orthogonalLoop=1;jettySize=auto;html=1;fillColor=#dae8fc;strokeColor=#6c8ebf;" edge="1" parent="1" source="CHVG-9VIsM-Ay3hfymmI-1" target="CHVG-9VIsM-Ay3hfymmI-5">
          <mxGeometry relative="1" as="geometry" />
        </mxCell>
        <mxCell id="CHVG-9VIsM-Ay3hfymmI-11" style="edgeStyle=orthogonalEdgeStyle;rounded=0;orthogonalLoop=1;jettySize=auto;html=1;entryX=0;entryY=0.5;entryDx=0;entryDy=0;fillColor=#dae8fc;strokeColor=#6c8ebf;" edge="1" parent="1" source="CHVG-9VIsM-Ay3hfymmI-1" target="CHVG-9VIsM-Ay3hfymmI-7">
          <mxGeometry relative="1" as="geometry" />
        </mxCell>
        <mxCell id="CHVG-9VIsM-Ay3hfymmI-13" style="edgeStyle=orthogonalEdgeStyle;rounded=0;orthogonalLoop=1;jettySize=auto;html=1;entryX=0;entryY=0.5;entryDx=0;entryDy=0;fillColor=#dae8fc;strokeColor=#6c8ebf;" edge="1" parent="1" source="CHVG-9VIsM-Ay3hfymmI-1" target="CHVG-9VIsM-Ay3hfymmI-12">
          <mxGeometry relative="1" as="geometry" />
        </mxCell>
        <mxCell id="CHVG-9VIsM-Ay3hfymmI-22" style="edgeStyle=orthogonalEdgeStyle;rounded=0;orthogonalLoop=1;jettySize=auto;html=1;entryX=0;entryY=0.5;entryDx=0;entryDy=0;fontSize=18;fillColor=#dae8fc;strokeColor=#6c8ebf;" edge="1" parent="1" source="CHVG-9VIsM-Ay3hfymmI-1" target="CHVG-9VIsM-Ay3hfymmI-19">
          <mxGeometry relative="1" as="geometry" />
        </mxCell>
        <mxCell id="CHVG-9VIsM-Ay3hfymmI-25" style="edgeStyle=orthogonalEdgeStyle;rounded=0;orthogonalLoop=1;jettySize=auto;html=1;entryX=0;entryY=0.5;entryDx=0;entryDy=0;fontSize=18;fillColor=#dae8fc;strokeColor=#6c8ebf;" edge="1" parent="1" source="CHVG-9VIsM-Ay3hfymmI-1" target="CHVG-9VIsM-Ay3hfymmI-24">
          <mxGeometry relative="1" as="geometry" />
        </mxCell>
        <mxCell id="CHVG-9VIsM-Ay3hfymmI-1" value="个人工具" style="rounded=0;whiteSpace=wrap;html=1;fillColor=#dae8fc;strokeColor=#6c8ebf;" vertex="1" parent="1">
          <mxGeometry x="-130" y="40" width="160" height="310" as="geometry" />
        </mxCell>
        <mxCell id="CHVG-9VIsM-Ay3hfymmI-3" value="任务，目标" style="rounded=0;whiteSpace=wrap;html=1;fillColor=#dae8fc;strokeColor=#6c8ebf;" vertex="1" parent="1">
          <mxGeometry x="210" y="-100" width="120" height="60" as="geometry" />
        </mxCell>
        <mxCell id="CHVG-9VIsM-Ay3hfymmI-5" value="时间" style="rounded=0;whiteSpace=wrap;html=1;fillColor=#dae8fc;strokeColor=#6c8ebf;" vertex="1" parent="1">
          <mxGeometry x="210" y="-20" width="120" height="60" as="geometry" />
        </mxCell>
        <mxCell id="CHVG-9VIsM-Ay3hfymmI-7" value="日程" style="rounded=0;whiteSpace=wrap;html=1;fillColor=#dae8fc;strokeColor=#6c8ebf;" vertex="1" parent="1">
          <mxGeometry x="210" y="60" width="120" height="60" as="geometry" />
        </mxCell>
        <mxCell id="CHVG-9VIsM-Ay3hfymmI-12" value="数据分析" style="rounded=0;whiteSpace=wrap;html=1;fillColor=#dae8fc;strokeColor=#6c8ebf;" vertex="1" parent="1">
          <mxGeometry x="210" y="146" width="120" height="60" as="geometry" />
        </mxCell>
        <mxCell id="CHVG-9VIsM-Ay3hfymmI-14" value="心理测验" style="rounded=0;whiteSpace=wrap;html=1;fillColor=#dae8fc;strokeColor=#6c8ebf;" vertex="1" parent="1">
          <mxGeometry x="207" y="231" width="120" height="60" as="geometry" />
        </mxCell>
        <mxCell id="CHVG-9VIsM-Ay3hfymmI-18" value="&lt;font style=&quot;font-size: 18px;&quot;&gt;&lt;b&gt;&amp;nbsp;1.X&lt;/b&gt;&lt;/font&gt;" style="text;html=1;strokeColor=none;fillColor=none;align=center;verticalAlign=middle;whiteSpace=wrap;rounded=0;" vertex="1" parent="1">
          <mxGeometry x="-150" y="-90" width="70" height="30" as="geometry" />
        </mxCell>
        <mxCell id="CHVG-9VIsM-Ay3hfymmI-19" value="数据加密备忘" style="rounded=0;whiteSpace=wrap;html=1;fillColor=#dae8fc;strokeColor=#6c8ebf;" vertex="1" parent="1">
          <mxGeometry x="210" y="310" width="120" height="60" as="geometry" />
        </mxCell>
        <mxCell id="CHVG-9VIsM-Ay3hfymmI-24" value="生成报告" style="rounded=0;whiteSpace=wrap;html=1;fillColor=#dae8fc;strokeColor=#6c8ebf;" vertex="1" parent="1">
          <mxGeometry x="210" y="390" width="120" height="60" as="geometry" />
        </mxCell>
        <mxCell id="CHVG-9VIsM-Ay3hfymmI-29" value="目标：打造一个帮助个人提升，时间管理工具" style="text;html=1;strokeColor=none;fillColor=none;align=center;verticalAlign=middle;whiteSpace=wrap;rounded=0;fontSize=18;" vertex="1" parent="1">
          <mxGeometry x="-140" y="-40" width="190" height="50" as="geometry" />
        </mxCell>
      </root>
    </mxGraphModel>
  </diagram>
</mxfile>
